<svg viewBox="0 0 256 256" xmlns="http://www.w3.org/2000/svg"><path d="m128.00049 24.00012a104 104 0 1 0 104 104 104.11791 104.11791 0 0 0 -104-104zm0 192a88 88 0 1 1 88-88 88.09957 88.09957 0 0 1 -88 88zm37.65722-61.65674a8.00018 8.00018 0 0 1 -11.31445 11.31348l-26.34277-26.343-26.34278 26.343a8.00018 8.00018 0 0 1 -11.31445-11.31348l26.34326-26.3435-26.34326-26.343a8.00018 8.00018 0 0 1 11.31445-11.31348l26.34229 26.34251 26.34229-26.34253a8.00018 8.00018 0 0 1 11.31445 11.31348l-26.34278 26.343z"/></svg>